G75*
G70*
%OFA0B0*%
%FSLAX24Y24*%
%IPPOS*%
%LPD*%
%AMOC8*
5,1,8,0,0,1.08239X$1,22.5*
%
%ADD10R,0.0700X0.0400*%
%ADD11R,0.0472X0.0472*%
%ADD12C,0.0472*%
%ADD13C,0.0394*%
%ADD14C,0.0100*%
D10*
X004625Y003550D03*
X004625Y004550D03*
X004625Y005550D03*
X004625Y006550D03*
X004625Y007550D03*
X004625Y008550D03*
X004625Y009550D03*
X004625Y010550D03*
X007425Y010550D03*
X007425Y009550D03*
X007425Y008550D03*
X007425Y007550D03*
X007425Y006550D03*
X007425Y005550D03*
X007425Y004550D03*
X007425Y003550D03*
D11*
X004525Y013550D03*
D12*
X004525Y012550D03*
X004525Y011550D03*
X007525Y011550D03*
X007525Y012550D03*
X007525Y013550D03*
X007525Y002550D03*
X007525Y001550D03*
X007525Y000550D03*
X004525Y000550D03*
X004525Y001550D03*
X004525Y002550D03*
D13*
X005525Y002550D03*
X006525Y002550D03*
X006325Y004350D03*
X006325Y004950D03*
X006325Y005550D03*
X006325Y006150D03*
X006325Y006750D03*
X006325Y007350D03*
X006325Y007950D03*
X006325Y008550D03*
X006325Y009150D03*
X006325Y009750D03*
X005725Y009750D03*
X005725Y009150D03*
X005725Y008550D03*
X005725Y007950D03*
X005725Y007350D03*
X005725Y006750D03*
X005725Y006150D03*
X005725Y005550D03*
X005725Y004950D03*
X005725Y004350D03*
X005525Y011550D03*
X006525Y011550D03*
D14*
X004525Y004550D02*
X004425Y004550D01*
X004525Y004550D01*
X004625Y004550D01*
X004525Y004550D01*
X004625Y004550D01*
X005075Y004550D01*
X005075Y004900D01*
X005725Y005550D01*
X005725Y004950D02*
X005325Y004550D01*
X005325Y003900D01*
X004975Y003550D01*
X004625Y003550D01*
X004525Y002550D02*
X005725Y003750D01*
X005725Y004350D01*
X006325Y004350D02*
X006325Y003750D01*
X007525Y002550D01*
X007425Y003550D02*
X007075Y003550D01*
X006725Y003900D01*
X006725Y004550D01*
X006325Y004950D01*
X006325Y005550D02*
X006975Y004900D01*
X006975Y004550D01*
X007425Y004550D01*
X007525Y004550D01*
X007575Y004550D01*
X007525Y004550D01*
X007425Y004550D01*
X007525Y004550D01*
X007425Y005550D02*
X006925Y005550D01*
X006325Y006150D01*
X006525Y006550D02*
X007425Y006550D01*
X006525Y006550D02*
X006325Y006750D01*
X006325Y007350D02*
X006525Y007550D01*
X007425Y007550D01*
X007425Y008550D02*
X006925Y008550D01*
X006325Y007950D01*
X006325Y008550D02*
X006975Y009200D01*
X006975Y009550D01*
X007425Y009550D01*
X007525Y009550D01*
X006725Y009550D02*
X006725Y010250D01*
X007025Y010550D01*
X007425Y010550D01*
X007525Y011550D02*
X006325Y010350D01*
X006325Y009750D01*
X006725Y009550D02*
X006325Y009150D01*
X005725Y009150D02*
X005325Y009550D01*
X005325Y010250D01*
X005025Y010550D01*
X004625Y010550D01*
X004475Y010550D01*
X004625Y010550D01*
X004625Y009550D02*
X004525Y009550D01*
X004625Y009550D02*
X005075Y009550D01*
X005075Y009200D01*
X005725Y008550D01*
X005725Y007950D02*
X005125Y008550D01*
X004625Y008550D01*
X004625Y007550D02*
X005525Y007550D01*
X005725Y007350D01*
X005725Y006750D02*
X005525Y006550D01*
X004625Y006550D01*
X004625Y005550D02*
X005125Y005550D01*
X005725Y006150D01*
X005525Y002550D02*
X004525Y001550D01*
X006525Y002550D02*
X007525Y001550D01*
X005725Y009750D02*
X005725Y010350D01*
X004525Y011550D01*
X004525Y012550D02*
X005525Y011550D01*
X006525Y011550D02*
X007525Y012550D01*
M02*
