G75*
G70*
%OFA0B0*%
%FSLAX24Y24*%
%IPPOS*%
%LPD*%
%AMOC8*
5,1,8,0,0,1.08239X$1,22.5*
%
%ADD10R,0.0750X0.0250*%
%ADD11C,0.0100*%
%ADD12R,0.0472X0.0472*%
%ADD13C,0.0472*%
%ADD14C,0.0394*%
D10*
X004645Y003800D03*
X004645Y004300D03*
X004645Y004800D03*
X004645Y005300D03*
X004645Y005800D03*
X004645Y006300D03*
X004645Y006800D03*
X004645Y007300D03*
X004645Y007800D03*
X004645Y008300D03*
X004645Y008800D03*
X004645Y009300D03*
X004645Y009800D03*
X004645Y010300D03*
X007405Y010300D03*
X007405Y009800D03*
X007405Y009300D03*
X007405Y008800D03*
X007405Y008300D03*
X007405Y007800D03*
X007405Y007300D03*
X007405Y006800D03*
X007405Y006300D03*
X007405Y005800D03*
X007405Y005300D03*
X007405Y004800D03*
X007405Y004300D03*
X007405Y003800D03*
D11*
X007425Y003800D01*
X007405Y003800D01*
X006925Y003800D01*
X006925Y001150D01*
X007525Y000550D01*
X006525Y002550D02*
X006525Y003950D01*
X006875Y004300D01*
X007405Y004300D01*
X007475Y004300D01*
X007405Y004300D01*
X007425Y004800D02*
X007405Y004800D01*
X007425Y004800D01*
X007405Y004800D02*
X006775Y004800D01*
X006325Y004350D01*
X006325Y004950D02*
X006675Y005300D01*
X007225Y005300D01*
X007405Y005300D01*
X007405Y005800D02*
X007225Y005800D01*
X006575Y005800D01*
X006525Y005750D01*
X006325Y005550D01*
X006325Y006150D02*
X006475Y006300D01*
X007175Y006300D01*
X007405Y006300D01*
X007425Y006800D02*
X007405Y006800D01*
X007425Y006800D02*
X006375Y006800D01*
X006325Y006750D01*
X006375Y007300D02*
X007275Y007300D01*
X007405Y007300D01*
X007405Y007800D02*
X007275Y007800D01*
X006475Y007800D01*
X006325Y007950D01*
X006575Y008300D02*
X007175Y008300D01*
X007405Y008300D01*
X007405Y008800D02*
X007275Y008800D01*
X006675Y008800D01*
X006325Y009150D01*
X006775Y009300D02*
X006325Y009750D01*
X006525Y010150D02*
X006875Y009800D01*
X007375Y009800D01*
X007405Y009800D01*
X007405Y010300D02*
X007225Y010300D01*
X006925Y010300D01*
X006925Y012950D01*
X007525Y013550D01*
X006525Y011550D02*
X006525Y010150D01*
X006775Y009300D02*
X007275Y009300D01*
X007405Y009300D01*
X006575Y008300D02*
X006325Y008550D01*
X005725Y008550D02*
X005475Y008300D01*
X004725Y008300D01*
X004645Y008300D01*
X004645Y007800D02*
X004775Y007800D01*
X005575Y007800D01*
X005725Y007950D01*
X005725Y007350D02*
X005675Y007300D01*
X004675Y007300D01*
X004645Y007300D01*
X004645Y006800D02*
X004725Y006800D01*
X005675Y006800D01*
X005725Y006750D01*
X005575Y006300D02*
X004775Y006300D01*
X004645Y006300D01*
X004645Y005800D02*
X004725Y005800D01*
X005475Y005800D01*
X005725Y005550D01*
X005375Y005300D02*
X004825Y005300D01*
X004645Y005300D01*
X004645Y004800D02*
X004575Y004800D01*
X004645Y004800D01*
X005275Y004800D01*
X005725Y004350D01*
X005525Y003950D02*
X005175Y004300D01*
X004645Y004300D01*
X004625Y004300D01*
X004645Y004300D01*
X004645Y003800D02*
X004675Y003800D01*
X005125Y003800D01*
X005125Y001150D01*
X004525Y000550D01*
X005525Y002550D02*
X005525Y003950D01*
X005725Y004950D02*
X005375Y005300D01*
X005725Y006150D02*
X005575Y006300D01*
X006375Y007300D02*
X006325Y007350D01*
X005375Y008800D02*
X004825Y008800D01*
X004645Y008800D01*
X004645Y009300D02*
X004775Y009300D01*
X005275Y009300D01*
X005725Y009750D01*
X005525Y010150D02*
X005175Y009800D01*
X004645Y009800D01*
X004575Y009800D01*
X004645Y009800D01*
X004645Y010300D02*
X004875Y010300D01*
X005125Y010300D01*
X005125Y012950D01*
X004525Y013550D01*
X005525Y011550D02*
X005525Y010150D01*
X005725Y009150D02*
X005425Y008850D01*
X005375Y008800D01*
D12*
X004525Y013550D03*
D13*
X004525Y000550D03*
X004525Y001550D03*
X004525Y002550D03*
X007525Y002550D03*
X007525Y001550D03*
X007525Y000550D03*
X007525Y011550D03*
X007525Y012550D03*
X007525Y013550D03*
X004525Y012550D03*
X004525Y011550D03*
D14*
X005525Y011550D03*
X006525Y011550D03*
X006325Y009750D03*
X006325Y009150D03*
X006325Y008550D03*
X006325Y007950D03*
X006325Y007350D03*
X006325Y006750D03*
X006325Y006150D03*
X006325Y005550D03*
X006325Y004950D03*
X006325Y004350D03*
X005725Y004350D03*
X005725Y004950D03*
X005725Y005550D03*
X005725Y006150D03*
X005725Y006750D03*
X005725Y007350D03*
X005725Y007950D03*
X005725Y008550D03*
X005725Y009150D03*
X005725Y009750D03*
X005525Y002550D03*
X006525Y002550D03*
M02*
