%
M48
M72
T01C0.0236
T02C0.0315
%
T01
X5525Y2550
X6525Y2550
X6325Y4350
X6325Y4950
X6325Y5550
X6325Y6150
X6325Y6750
X6325Y7350
X6325Y7950
X6325Y8550
X6325Y9150
X6325Y9750
X5725Y9750
X5725Y9150
X5725Y8550
X5725Y7950
X5725Y7350
X5725Y6750
X5725Y6150
X5725Y5550
X5725Y4950
X5725Y4350
X5525Y11550
X6525Y11550
T02
X4525Y550
X4525Y1550
X4525Y2550
X7525Y2550
X7525Y1550
X7525Y550
X7525Y11550
X7525Y12550
X7525Y13550
X4525Y13550
X4525Y12550
X4525Y11550
M30
